<?xml version="1.0" standalone="no"?>
<!DOCTYPE svg PUBLIC "-//W3C//DTD SVG 20010904//EN"
 "http://www.w3.org/TR/2001/REC-SVG-20010904/DTD/svg10.dtd">
<svg version="1.0" xmlns="http://www.w3.org/2000/svg"
 width="57.000000pt" height="57.000000pt" viewBox="0 0 57.000000 57.000000"
 preserveAspectRatio="xMidYMid meet">
<metadata>
Created by potrace 1.10, written by Peter Selinger 2001-2011
</metadata>
<g transform="translate(0.000000,57.000000) scale(0.100000,-0.100000)"
fill="#000000" stroke="none">
<path d="M203 397 l-43 -21 0 -102 c0 -113 7 -125 56 -95 28 17 31 17 72 -3
l42 -20 45 22 45 22 0 100 c0 113 -6 123 -59 95 -29 -14 -33 -14 -71 5 -21 11
-41 20 -42 19 -2 0 -22 -10 -45 -22z m37 -95 c0 -85 -1 -89 -25 -100 -14 -7
-28 -12 -30 -12 -3 0 -5 39 -5 88 0 81 2 88 23 98 12 7 25 12 30 13 4 0 7 -39
7 -87z m80 -32 l0 -89 -30 17 c-30 17 -30 18 -30 105 l0 88 30 -16 c30 -15 30
-16 30 -105z m80 32 c0 -85 -1 -89 -25 -100 -14 -7 -28 -12 -30 -12 -3 0 -5
39 -5 88 0 81 2 88 23 98 12 7 25 12 30 13 4 0 7 -39 7 -87z"/>
</g>
</svg>
