<svg width="57" height="57" viewBox="0 0 57 57" fill="none" xmlns="http://www.w3.org/2000/svg">
<path d="M0.824219 28.1836C0.824219 12.7196 13.3602 0.183594 28.8242 0.183594V0.183594C44.2882 0.183594 56.8242 12.7196 56.8242 28.1836V28.1836C56.8242 43.6476 44.2882 56.1836 28.8242 56.1836V56.1836C13.3602 56.1836 0.824219 43.6476 0.824219 28.1836V28.1836Z" fill="#FEF9C3"/>
<path d="M34.1575 40.1836V37.5169C34.1575 36.1024 33.5956 34.7459 32.5954 33.7457C31.5952 32.7455 30.2387 32.1836 28.8242 32.1836H20.8242C19.4097 32.1836 18.0531 32.7455 17.0529 33.7457C16.0527 34.7459 15.4908 36.1024 15.4908 37.5169V40.1836" stroke="#CA8A04" stroke-width="2" stroke-linecap="round" stroke-linejoin="round"/>
<path d="M34.1576 16.3542C35.3013 16.6507 36.3141 17.3186 37.0372 18.253C37.7602 19.1874 38.1525 20.3354 38.1525 21.5169C38.1525 22.6984 37.7602 23.8464 37.0372 24.7808C36.3141 25.7152 35.3013 26.3831 34.1576 26.6796" stroke="#CA8A04" stroke-width="2" stroke-linecap="round" stroke-linejoin="round"/>
<path d="M42.1576 40.1836V37.5169C42.1567 36.3352 41.7634 35.1873 41.0394 34.2534C40.3154 33.3194 39.3018 32.6524 38.1576 32.3569" stroke="#CA8A04" stroke-width="2" stroke-linecap="round" stroke-linejoin="round"/>
<path d="M24.8242 26.8503C27.7697 26.8503 30.1575 24.4624 30.1575 21.5169C30.1575 18.5714 27.7697 16.1836 24.8242 16.1836C21.8787 16.1836 19.4908 18.5714 19.4908 21.5169C19.4908 24.4624 21.8787 26.8503 24.8242 26.8503Z" stroke="#CA8A04" stroke-width="2" stroke-linecap="round" stroke-linejoin="round"/>
</svg>
