<svg width="21" height="21" viewBox="0 0 21 21" fill="none" xmlns="http://www.w3.org/2000/svg">
<g clip-path="url(#clip0_5_470)">
<path d="M17.6283 8.51689C17.6283 12.6777 13.0125 17.0111 11.4625 18.3494C11.3181 18.458 11.1423 18.5167 10.9616 18.5167C10.781 18.5167 10.6052 18.458 10.4608 18.3494C8.91082 17.0111 4.29498 12.6777 4.29498 8.51689C4.29498 6.74878 4.99736 5.05308 6.2476 3.80284C7.49785 2.5526 9.19354 1.85022 10.9616 1.85022C12.7298 1.85022 14.4255 2.5526 15.6757 3.80284C16.9259 5.05308 17.6283 6.74878 17.6283 8.51689Z" stroke="white" stroke-width="2" stroke-linecap="round" stroke-linejoin="round"/>
<path d="M10.9617 11.017C12.3424 11.017 13.4617 9.89768 13.4617 8.51697C13.4617 7.13626 12.3424 6.01697 10.9617 6.01697C9.58096 6.01697 8.46167 7.13626 8.46167 8.51697C8.46167 9.89768 9.58096 11.017 10.9617 11.017Z" stroke="white" stroke-width="2" stroke-linecap="round" stroke-linejoin="round"/>
</g>
<defs>
<clipPath id="clip0_5_470">
<rect width="20" height="20" fill="white" transform="translate(0.96167 0.183594)"/>
</clipPath>
</defs>
</svg>
