<svg width="57" height="57" viewBox="0 0 57 57" fill="none" xmlns="http://www.w3.org/2000/svg">
<path d="M0.886719 28.1836C0.886719 12.7196 13.4227 0.183594 28.8867 0.183594V0.183594C44.3507 0.183594 56.8867 12.7196 56.8867 28.1836V28.1836C56.8867 43.6476 44.3507 56.1836 28.8867 56.1836V56.1836C13.4227 56.1836 0.886719 43.6476 0.886719 28.1836V28.1836Z" fill="#DCFCE7"/>
<path d="M32.8867 14.8502H20.8867C20.1795 14.8502 19.5012 15.1312 19.0011 15.6313C18.501 16.1314 18.22 16.8096 18.22 17.5169V38.8502C18.22 39.5575 18.501 40.2357 19.0011 40.7358C19.5012 41.2359 20.1795 41.5169 20.8867 41.5169H36.8867C37.5939 41.5169 38.2722 41.2359 38.7723 40.7358C39.2724 40.2357 39.5534 39.5575 39.5534 38.8502V21.5169L32.8867 14.8502Z" stroke="#16A34A" stroke-width="2" stroke-linecap="round" stroke-linejoin="round"/>
<path d="M31.5534 14.8502V20.1836C31.5534 20.8908 31.8344 21.5691 32.3345 22.0692C32.8346 22.5693 33.5128 22.8502 34.2201 22.8502H39.5534" stroke="#16A34A" stroke-width="2" stroke-linecap="round" stroke-linejoin="round"/>
<path d="M26.2201 24.1836H23.5534" stroke="#16A34A" stroke-width="2" stroke-linecap="round" stroke-linejoin="round"/>
<path d="M34.2201 29.517H23.5534" stroke="#16A34A" stroke-width="2" stroke-linecap="round" stroke-linejoin="round"/>
<path d="M34.2201 34.8502H23.5534" stroke="#16A34A" stroke-width="2" stroke-linecap="round" stroke-linejoin="round"/>
</svg>
